<svg width="1440" height="3856" viewBox="0 0 1440 3856" fill="none" xmlns="http://www.w3.org/2000/svg">
<g clip-path="url(#clip0_31_141)">
<rect width="1440" height="3856" fill="#222021"/>
<path d="M98.0454 0C130.727 97.3736 114.386 233.697 0 292.121" stroke="#F1DED0" stroke-opacity="0.29" stroke-width="0.5" stroke-linecap="round"/>
<path d="M228.773 0C288.689 146.06 326.818 473.236 0 613.454" stroke="#F1DED0" stroke-opacity="0.29" stroke-width="0.5" stroke-linecap="round"/>
<path d="M555.59 0C528.356 253.171 382.377 765.357 16.3408 788.727" stroke="#F1DED0" stroke-opacity="0.29" stroke-width="0.5" stroke-linecap="round"/>
<path d="M800.704 0C757.128 272.646 539.25 858.835 16.3408 1022.42" stroke="#F1DED0" stroke-opacity="0.29" stroke-width="0.5" stroke-linecap="round"/>
<path d="M1094.84 0C931.431 331.07 581.736 993.211 490.227 993.211C398.718 993.211 125.28 1557.98 0 1840.36" stroke="#F1DED0" stroke-opacity="0.29" stroke-width="0.5" stroke-linecap="round"/>
<path d="M1421.66 0C604.614 886.1 -696.122 2897.84 637.296 3856" stroke="#F1DED0" stroke-opacity="0.29" stroke-width="0.5" stroke-linecap="round"/>
<path d="M0 3447.02C27.2348 3573.61 111.118 3832.62 228.773 3855.99" stroke="#F1DED0" stroke-opacity="0.29" stroke-width="0.5" stroke-linecap="round"/>
<path d="M1438 350.547C751.682 1158.75 -212.43 2564.82 1421.66 1723.52" stroke="#F1DED0" stroke-opacity="0.29" stroke-width="0.5" stroke-linecap="round"/>
<path d="M1421.66 642.67C1034.93 1100.33 343.159 2161.7 1421.66 1489.82" stroke="#F1DED0" stroke-opacity="0.29" stroke-width="0.5" stroke-linecap="round"/>
<path d="M1421.66 1928C762.575 2064.32 -16.3404 2687.51 849.726 3856" stroke="#F1DED0" stroke-opacity="0.29" stroke-width="0.5" stroke-linecap="round"/>
<path d="M1438 2278.54C1013.14 2366.18 212.432 2453.82 947.773 3826.79" stroke="#F1DED0" stroke-opacity="0.29" stroke-width="0.5" stroke-linecap="round"/>
<path d="M1421.66 2629.09C1105.73 2658.3 490.226 2483.03 1045.82 3856" stroke="#F1DED0" stroke-opacity="0.29" stroke-width="0.5" stroke-linecap="round"/>
<path d="M1421.66 2892C1214.67 2960.16 784.363 2658.3 1160.2 3856" stroke="#F1DED0" stroke-opacity="0.29" stroke-width="0.5" stroke-linecap="round"/>
<path d="M1438 3190.22C1299.51 3243.06 1039.83 2841.48 1264.88 3855.99" stroke="#F1DED0" stroke-opacity="0.29" stroke-width="0.5" stroke-linecap="round"/>
<path d="M1388.98 3856H1421.66" stroke="#F1DED0" stroke-opacity="0.29" stroke-width="0.5" stroke-linecap="round"/>
</g>
<defs>
<clipPath id="clip0_31_141">
<rect width="1440" height="3856" fill="white"/>
</clipPath>
</defs>
</svg>
