<svg width="38" height="50" viewBox="0 0 38 50" fill="none" xmlns="http://www.w3.org/2000/svg">
<path d="M32.0188 27.9375C30.3813 31.2562 28.1625 34.5625 25.8938 37.5312C23.7416 40.3301 21.4403 43.011 19 45.5625C16.5596 43.0111 14.2584 40.3301 12.1063 37.5312C9.8375 34.5625 7.61875 31.2562 5.98125 27.9375C4.325 24.5844 3.375 21.4438 3.375 18.75C3.375 14.606 5.0212 10.6317 7.95146 7.70146C10.8817 4.7712 14.856 3.125 19 3.125C23.144 3.125 27.1183 4.7712 30.0485 7.70146C32.9788 10.6317 34.625 14.606 34.625 18.75C34.625 21.4438 33.6719 24.5844 32.0188 27.9375ZM19 50C19 50 37.75 32.2313 37.75 18.75C37.75 13.7772 35.7746 9.00805 32.2583 5.49175C28.7419 1.97544 23.9728 0 19 0C14.0272 0 9.25805 1.97544 5.74175 5.49175C2.22544 9.00805 0.25 13.7772 0.25 18.75C0.25 32.2313 19 50 19 50Z" fill="#F5F5F5"/>
</svg>
